<svg width="12" height="23" viewBox="0 0 12 23" fill="none" xmlns="http://www.w3.org/2000/svg">
<path d="M0 11.5C0 11.6777 0.0296224 11.847 0.0888672 12.0078C0.156576 12.1602 0.26237 12.304 0.40625 12.4395L9.85156 21.6689C10.0885 21.9144 10.3805 22.0371 10.7275 22.0371C10.9645 22.0371 11.1761 21.9821 11.3623 21.8721C11.557 21.762 11.7093 21.6097 11.8193 21.415C11.9378 21.2288 11.9971 21.0173 11.9971 20.7803C11.9971 20.4417 11.8701 20.1455 11.6162 19.8916L3.03418 11.5L11.6162 3.1084C11.8701 2.85449 11.9971 2.55827 11.9971 2.21973C11.9971 1.97428 11.9378 1.75846 11.8193 1.57227C11.7093 1.38607 11.557 1.23796 11.3623 1.12793C11.1761 1.0179 10.9645 0.962891 10.7275 0.962891C10.3805 0.962891 10.0885 1.08561 9.85156 1.33105L0.40625 10.5605C0.26237 10.696 0.156576 10.8441 0.0888672 11.0049C0.0296224 11.1572 0 11.3223 0 11.5Z" fill="#21A8DF"/>
</svg>
