<svg width="53" height="60" viewBox="0 0 53 60" fill="none" xmlns="http://www.w3.org/2000/svg">
<path d="M4.54199 59.8057C5.24056 59.8057 5.90299 59.6852 6.5293 59.4443C7.17969 59.2035 7.87826 58.8542 8.625 58.3965L48.6963 35.1992C50.1657 34.3802 51.2015 33.6214 51.8037 32.9229C52.4059 32.2002 52.707 31.3451 52.707 30.3574C52.707 29.3939 52.4059 28.5508 51.8037 27.8281C51.2015 27.1055 50.1657 26.3346 48.6963 25.5156L8.625 2.31836C7.87826 1.86068 7.17969 1.51139 6.5293 1.27051C5.90299 1.02962 5.24056 0.90918 4.54199 0.90918C3.19303 0.90918 2.10905 1.37891 1.29004 2.31836C0.495117 3.25781 0.0976562 4.53451 0.0976562 6.14844V54.5664C0.0976562 56.1803 0.495117 57.457 1.29004 58.3965C2.10905 59.3359 3.19303 59.8057 4.54199 59.8057Z" fill="white"/>
</svg>
